<svg width="20" height="19" viewBox="0 0 20 19" fill="none" xmlns="http://www.w3.org/2000/svg">
<path d="M10 17.4166C14.6024 17.4166 18.3334 13.8722 18.3334 9.49998C18.3334 5.12773 14.6024 1.58331 10 1.58331C5.39765 1.58331 1.66669 5.12773 1.66669 9.49998C1.66669 13.8722 5.39765 17.4166 10 17.4166Z" stroke="#9810FA" stroke-width="1.66667" stroke-linecap="round" stroke-linejoin="round"/>
<path d="M10 14.25C12.7614 14.25 15 12.1234 15 9.5C15 6.87665 12.7614 4.75 10 4.75C7.23858 4.75 5 6.87665 5 9.5C5 12.1234 7.23858 14.25 10 14.25Z" stroke="#9810FA" stroke-width="1.66667" stroke-linecap="round" stroke-linejoin="round"/>
<path d="M9.99998 11.0834C10.9205 11.0834 11.6666 10.3745 11.6666 9.50002C11.6666 8.62557 10.9205 7.91669 9.99998 7.91669C9.07951 7.91669 8.33331 8.62557 8.33331 9.50002C8.33331 10.3745 9.07951 11.0834 9.99998 11.0834Z" stroke="#9810FA" stroke-width="1.66667" stroke-linecap="round" stroke-linejoin="round"/>
</svg>
