<svg width="19" height="17" viewBox="0 0 19 17" fill="none" xmlns="http://www.w3.org/2000/svg">
<path d="M1.83333 13.5C1.61232 13.5 1.40036 13.4122 1.24408 13.2559C1.0878 13.0996 1 12.8877 1 12.6667V1.83333C1 1.61232 1.0878 1.40036 1.24408 1.24408C1.40036 1.0878 1.61232 1 1.83333 1H6C6.88405 1 7.7319 1.35119 8.35702 1.97631C8.98214 2.60143 9.33333 3.44928 9.33333 4.33333C9.33333 3.44928 9.68452 2.60143 10.3096 1.97631C10.9348 1.35119 11.7826 1 12.6667 1H16.8333C17.0543 1 17.2663 1.0878 17.4226 1.24408C17.5789 1.40036 17.6667 1.61232 17.6667 1.83333V12.6667C17.6667 12.8877 17.5789 13.0996 17.4226 13.2559C17.2663 13.4122 17.0543 13.5 16.8333 13.5H11.8333C11.1703 13.5 10.5344 13.7634 10.0656 14.2322C9.59673 14.7011 9.33333 15.337 9.33333 16C9.33333 15.337 9.06994 14.7011 8.6011 14.2322C8.13226 13.7634 7.49637 13.5 6.83333 13.5H1.83333Z" stroke="#AF46FB" stroke-width="1.66667" stroke-linecap="round" stroke-linejoin="round"/>
<path d="M9 3V14" stroke="#AF46FB" stroke-width="1.66667" stroke-linecap="round" stroke-linejoin="round"/>
<path d="M10 2V13" stroke="#AF46FB" stroke-width="1.66667" stroke-linecap="round" stroke-linejoin="round"/>
</svg>
